<?xml version="1.0" encoding="iso-8859-1"?>
<!-- Generator: Adobe Illustrator 19.0.0, SVG Export Plug-In . SVG Version: 6.00 Build 0)  -->
<svg xmlns="http://www.w3.org/2000/svg" xmlns:xlink="http://www.w3.org/1999/xlink" version="1.1" id="Capa_1" x="0px" y="0px" viewBox="0 0 512 512" style="enable-background:new 0 0 512 512;" xml:space="preserve" width="512px" height="512px">
<g>
	<g>
		<path d="M508.997,127.006l-91-121C415.17,2.227,410.717,0,406,0H106c-4.717,0-9.17,2.227-11.997,6.006l-91,121    c-3.413,4.541-3.955,10.62-1.421,15.703C4.131,147.792,9.316,151,15,151h482c5.684,0,10.869-3.208,13.418-8.291    C512.952,137.626,512.41,131.547,508.997,127.006z" fill="#FFFFFF"/>
	</g>
</g>
<g>
	<g>
		<path d="M357.162,379.036c-12.158-44.341-51.27-75.308-97.866-77.036l-7.148,0.015c-46.04,1.714-85.151,32.681-97.295,76.963    C152.289,388.118,151,397.552,151,407c0,57.891,47.109,105,105,105s105-47.109,105-105    C361,397.552,359.711,388.118,357.162,379.036z M286,452h-60c-8.291,0-15-6.709-15-15c0-8.291,6.709-15,15-15h15v-30h-15    c-8.291,0-15-6.709-15-15c0-8.291,6.709-15,15-15h30c8.291,0,15,6.709,15,15v45h15c8.291,0,15,6.709,15,15    C301,445.291,294.291,452,286,452z" fill="#FFFFFF"/>
	</g>
</g>
<g>
	<g>
		<path d="M317.071,181l-50.424,91.853c50.568,4.501,93.102,34.958,112.716,79.689L486.636,181H317.071z" fill="#FFFFFF"/>
	</g>
</g>
<g>
	<g>
		<path d="M194.929,181H25.364L132.62,352.517c19.695-45.103,62.583-75.811,112.652-79.812L194.929,181z" fill="#FFFFFF"/>
	</g>
</g>
<g>
</g>
<g>
</g>
<g>
</g>
<g>
</g>
<g>
</g>
<g>
</g>
<g>
</g>
<g>
</g>
<g>
</g>
<g>
</g>
<g>
</g>
<g>
</g>
<g>
</g>
<g>
</g>
<g>
</g>
</svg>
