<?xml version="1.0" encoding="iso-8859-1"?>
<!-- Generator: Adobe Illustrator 19.0.0, SVG Export Plug-In . SVG Version: 6.00 Build 0)  -->
<svg xmlns="http://www.w3.org/2000/svg" xmlns:xlink="http://www.w3.org/1999/xlink" version="1.1" id="Capa_1" x="0px" y="0px" viewBox="0 0 512 512" style="enable-background:new 0 0 512 512;" xml:space="preserve" width="512px" height="512px">
<g>
	<g>
		<path d="M376,0c-45.533,0-187.733,0-240,0c-24.814,0-45,20.186-45,45c0,24.814,20.186,45,45,45h25.532    c10.366,21.652,27.816,39.102,49.468,49.468v43.295c-17.422,6.213-30,22.707-30,42.237v31c0,8.291,6.709,15,15,15h120    c8.291,0,15-6.709,15-15v-31c0-19.53-12.578-36.024-30-42.237v-43.295c21.652-10.366,39.102-27.816,49.468-49.468H376    c24.814,0,45-20.186,45-45C421,20.186,400.814,0,376,0z M136,60c-8.276,0-15-6.724-15-15s6.724-15,15-15h15v15    c0,5.136,0.8,10.058,1.516,15H136z M271,180h-30v-31.516c4.942,0.716,9.864,1.516,15,1.516s10.058-0.8,15-1.516V180z M376,60    h-16.516C360.2,55.058,361,50.136,361,45V30h15c8.276,0,15,6.724,15,15S384.276,60,376,60z" fill="#FFFFFF"/>
	</g>
</g>
<g>
	<g>
		<path d="M497,391c-59.998,0-11.232,0-106,0v121h76c8.291,0,15-6.709,15-15v-76h15c8.291,0,15-6.709,15-15    C512,397.709,505.291,391,497,391z" fill="#FFFFFF"/>
	</g>
</g>
<g>
	<g>
		<path d="M376,301c-51.879,0-192.261,0-240,0c-8.291,0-15,6.709-15,15c0,8.291,6.709,15,15,15h15c0,105.403,0,75.791,0,181    c49.796,0,167.582,0,210,0c0-60.089,0-121.073,0-181h15c8.291,0,15-6.709,15-15C391,307.709,384.291,301,376,301z M286,451h-60    c-8.291,0-15-6.709-15-15c0-8.291,6.709-15,15-15h15v-30h-15c-8.291,0-15-6.709-15-15c0-8.291,6.709-15,15-15h30    c8.291,0,15,6.709,15,15v45h15c8.291,0,15,6.709,15,15C301,444.291,294.291,451,286,451z" fill="#FFFFFF"/>
	</g>
</g>
<g>
	<g>
		<path d="M15,361c-8.291,0-15,6.709-15,15c0,8.291,6.709,15,15,15h15v106c0,8.291,6.709,15,15,15h76V361    C26.193,361,75.016,361,15,361z" fill="#FFFFFF"/>
	</g>
</g>
<g>
</g>
<g>
</g>
<g>
</g>
<g>
</g>
<g>
</g>
<g>
</g>
<g>
</g>
<g>
</g>
<g>
</g>
<g>
</g>
<g>
</g>
<g>
</g>
<g>
</g>
<g>
</g>
<g>
</g>
</svg>
